<svg xmlns="http://www.w3.org/2000/svg" version="1.1" xmlns:xlink="http://www.w3.org/1999/xlink" width="1000" height="1000"><g clip-path="url(#SvgjsClipPath1511)"><rect width="1000" height="1000" fill="#ffffff"></rect><g transform="matrix(14.285714285714286,0,0,14.285714285714286,0,0)"><svg xmlns="http://www.w3.org/2000/svg" version="1.1" xmlns:xlink="http://www.w3.org/1999/xlink" width="70" height="70"><svg width="70" height="70" viewBox="0 0 70 70" fill="none" xmlns="http://www.w3.org/2000/svg">
<rect width="70" height="70" fill="white"></rect>
<path d="M41.8286 28.0755C50.7504 28.0755 55.2159 32.6779 55.2159 41.8827V47.3267C55.2159 56.5315 50.7504 61.1339 41.8286 61.1339H29.8409C20.9189 61.1339 16.4534 56.5315 16.4534 47.3267V44.6906C16.4534 44.3557 16.7281 44.0895 17.0736 44.0895H29.2118C29.5574 44.0895 29.832 44.3557 29.832 44.6906V48.6919C29.832 49.2501 30.0092 49.7395 30.3725 50.1601C30.8066 50.5811 31.3116 50.7871 31.8876 50.7871H40.7387C41.3145 50.7871 41.7841 50.5811 42.1386 50.1601C42.5727 49.7395 42.7852 49.2501 42.7852 48.6919V42.4152C42.7852 41.8569 42.5727 41.3676 42.1386 40.9467C41.7754 40.526 41.3145 40.32 40.7387 40.32H29.6194C20.6974 40.32 16.2319 35.7176 16.2319 26.5128V21.8073C16.2319 12.6024 20.6974 8 29.6194 8H40.9513C49.8733 8 54.3388 12.6024 54.3388 21.8073V23.0867C54.3388 23.4216 54.0641 23.6878 53.7186 23.6878H41.5805C41.2349 23.6878 40.9602 23.4216 40.9602 23.0867V20.4506C40.9602 19.8923 40.7476 19.403 40.3133 18.9823C39.9501 18.5616 39.4894 18.3554 38.9135 18.3554H30.7092C30.1333 18.3554 29.6282 18.5616 29.1941 18.9823C28.8309 19.403 28.6536 19.8923 28.6536 20.4506V25.9975C28.6536 26.5557 28.8309 27.0451 29.1941 27.4657C29.6282 27.8866 30.1333 28.0926 30.7092 28.0926H41.8286V28.0755Z" fill="#59479E"></path>
</svg></svg></g></g><defs><clipPath id="SvgjsClipPath1511"><rect width="1000" height="1000" x="0" y="0" rx="250" ry="250"></rect></clipPath></defs></svg>