<svg width="44" height="44" viewBox="0 0 44 44" fill="none" xmlns="http://www.w3.org/2000/svg">
<g clip-path="url(#clip0_9080_223)">
<path d="M5.5 22.0005C5.5 24.1673 5.92678 26.3129 6.75599 28.3148C7.58519 30.3166 8.80057 32.1356 10.3327 33.6677C11.8649 35.1999 13.6839 36.4153 15.6857 37.2445C17.6876 38.0737 19.8332 38.5005 22 38.5005C24.1668 38.5005 26.3124 38.0737 28.3143 37.2445C30.3161 36.4153 32.1351 35.1999 33.6673 33.6677C35.1994 32.1356 36.4148 30.3166 37.244 28.3148C38.0732 26.3129 38.5 24.1673 38.5 22.0005C38.5 17.6244 36.7616 13.4276 33.6673 10.3332C30.5729 7.23888 26.3761 5.50049 22 5.50049C17.6239 5.50049 13.4271 7.23888 10.3327 10.3332C7.23839 13.4276 5.5 17.6244 5.5 22.0005Z" stroke="white" stroke-width="1.5" stroke-linecap="round" stroke-linejoin="round"/>
<path d="M22 14.667L14.6667 22.0003" stroke="white" stroke-width="1.5" stroke-linecap="round" stroke-linejoin="round"/>
<path d="M22 14.667V29.3337" stroke="white" stroke-width="1.5" stroke-linecap="round" stroke-linejoin="round"/>
<path d="M29.3333 22.0003L22 14.667" stroke="white" stroke-width="1.5" stroke-linecap="round" stroke-linejoin="round"/>
</g>
<defs>
<clipPath id="clip0_9080_223">
<rect width="44" height="44" fill="white" transform="translate(0 0.000488281)"/>
</clipPath>
</defs>
</svg>
