<svg width="24" height="24" viewBox="0 0 24 24" fill="none" xmlns="http://www.w3.org/2000/svg">
<path d="M11.9982 0C9.62498 0.000350509 7.30505 0.704434 5.33188 2.02323C3.35872 3.34201 1.82092 5.21628 0.912946 7.409C0.00496252 9.60175 -0.232425 12.0145 0.230798 14.3421C0.694019 16.6698 1.83705 18.8078 3.51535 20.4859C5.19365 22.1639 7.33184 23.3067 9.65957 23.7696C11.9873 24.2324 14.4 23.9947 16.5926 23.0864C18.7853 22.1781 20.6593 20.64 21.9778 18.6666C23.2963 16.6933 24 14.3733 24 12C23.9963 8.81823 22.7305 5.76791 20.4806 3.51823C18.2305 1.26856 15.18 0.00328326 11.9982 0ZM13.393 16.6841C12.1948 18.2031 10.4515 19.195 8.53344 19.4488C8.53344 19.4488 9.92999 18.9171 11.2556 16.7319C12.5246 14.4192 12.6327 12.6717 13.8272 11.1705C15.8458 8.63269 18.4475 9.23348 18.4475 9.23348C18.148 8.28358 17.2654 7.69873 16.0124 7.75365C15.6048 6.43331 13.8414 5.94417 12.5849 6.59813C11.6509 7.08193 10.6478 7.78376 9.5277 7.76074C9.40283 7.76336 9.27796 7.75805 9.15376 7.74479C8.45522 7.63713 7.81066 7.30488 7.3177 6.79837C7.23968 7.88835 7.94152 8.90917 8.77093 9.24942C10.1888 9.82896 11.1901 9.12535 11.1901 9.12535C10.2946 11.4867 8.68355 13.5092 6.5822 14.9101C4.21623 13.7386 2.65663 11.6048 2.32877 8.66458C3.11678 6.38228 4.68932 4.45378 6.76631 3.22253C8.8433 1.99129 11.2899 1.53723 13.6704 1.94125C16.0509 2.34527 18.2106 3.58111 19.7651 5.42869C21.3196 7.27627 22.1678 9.61559 22.1586 12.0301C22.1586 12.1435 22.1586 12.2552 22.1586 12.3686C21.1818 13.7706 19.8653 14.9018 18.3322 15.6566C16.7992 16.4113 15.0998 16.7648 13.393 16.6841Z" fill="#FF5800"/>
</svg>
