<svg width="24" height="20" viewBox="0 0 24 20" fill="none" xmlns="http://www.w3.org/2000/svg">
<g clip-path="url(#clip0_9072_2264)">
<path fill-rule="evenodd" clip-rule="evenodd" d="M16.1419 13.7704C16.184 13.6111 16.2989 13.5046 16.3974 13.3728C17.034 12.5208 17.7383 10.9754 17.8184 9.99988C19.9805 9.99988 20.5608 12.7063 18.7399 13.6085C18.1578 13.897 16.9801 13.7704 16.1416 13.7704H16.1419ZM11.9231 13.2238V9.99988H14.6275C14.5373 11.0953 12.8231 13.0121 11.9231 13.2238ZM11.9231 3.66091C12.2732 3.848 12.5097 3.98393 12.8279 4.2222C13.1182 4.43937 13.3527 4.65589 13.5838 4.93382C13.8212 5.21911 13.9903 5.47784 14.185 5.80183C14.3233 6.03179 14.6022 6.57709 14.6275 6.88478H11.9231V3.66091ZM1.5384 6.17442H4.83756C4.99239 5.50343 5.85499 4.64374 6.36406 4.21965C6.8772 3.79203 7.94907 3.23937 8.78569 3.16901V6.88478H6.5141C6.38933 6.88478 6.35166 6.92284 6.35166 7.04884V9.83581C6.35166 9.96181 6.38933 9.99988 6.5141 9.99988H8.78569V13.7156C7.962 13.6971 6.84077 13.0581 6.35071 12.6785C5.66727 12.1488 5.20036 11.5066 4.78312 10.7102H1.53809C1.56151 10.9945 1.85876 11.7398 1.96987 11.9678C2.9338 13.9421 4.27629 15.3119 6.29816 16.2285C6.94428 16.5215 8.18586 16.8848 9.11017 16.8848H18.2508C19.4997 16.8848 20.6614 16.2187 21.4826 15.3957C23.1803 13.6948 23.3921 10.905 21.9448 8.94509C20.9644 7.61751 19.55 6.88478 17.8181 6.88478C17.7909 6.55503 17.6377 6.09066 17.5411 5.79863C17.0543 4.32775 16.7431 4.10355 16.0875 3.11432H21.388V-0.000488281H9.3267C7.52362 -0.000488281 5.59287 0.829784 4.28834 1.90345C4.19433 1.98084 4.1592 2.03298 4.06425 2.11421C3.62958 2.48586 3.35736 2.75228 3.00596 3.23074C2.60173 3.78148 2.31587 4.19246 2.00627 4.84363C1.88376 5.10173 1.56182 5.8885 1.5384 6.17412V6.17442Z" fill="url(#paint0_linear_9072_2264)"/>
<path fill-rule="evenodd" clip-rule="evenodd" d="M0.00752192 19.2434C0.00752192 19.6597 -0.0465854 19.8342 0.135435 19.8342H23.8646C24.0464 19.8342 23.9925 19.6597 23.9925 19.2434C23.9925 19.1386 23.9629 19.1069 23.8646 19.1069H0.135435C0.0371937 19.1069 0.00752192 19.1386 0.00752192 19.2434Z" fill="url(#paint1_linear_9072_2264)"/>
</g>
<defs>
<linearGradient id="paint0_linear_9072_2264" x1="-2.27931" y1="15.2556" x2="28.6411" y2="4.54784" gradientUnits="userSpaceOnUse">
<stop stop-color="#381F6F"/>
<stop offset="1" stop-color="#537FC8"/>
</linearGradient>
<linearGradient id="paint1_linear_9072_2264" x1="-4.2875" y1="19.764" x2="-3.81628" y2="15.5091" gradientUnits="userSpaceOnUse">
<stop stop-color="#381F6F"/>
<stop offset="1" stop-color="#537FC8"/>
</linearGradient>
<clipPath id="clip0_9072_2264">
<rect width="24" height="20" fill="white"/>
</clipPath>
</defs>
</svg>
