<svg width="18" height="22" viewBox="0 0 18 22" fill="none" xmlns="http://www.w3.org/2000/svg">
<path d="M12.2766 5.41943H9.38548L5.5293 14.9486H8.00303L10.8311 7.5885L13.659 14.9486H16.1328L12.2766 5.41943Z" fill="#39B980"/>
<path fill-rule="evenodd" clip-rule="evenodd" d="M9.78571 21.9516L9.76568 21.9493H9.76105L9.75954 21.9485C8.30626 21.8023 6.9084 21.3608 5.6469 20.6687C3.21166 19.3332 1.28395 17.0667 0.442171 14.1855C-0.400381 11.3034 0.000870608 8.35178 1.33016 5.90818C2.01406 4.65004 2.94441 3.52725 4.07654 2.61786L4.09887 2.5993C4.09964 2.59853 4.10041 2.59775 4.10118 2.59698C5.77782 1.21744 7.82953 0.298774 10.0529 0.00956445C10.0645 0.00801788 10.1377 0.00105829 10.1492 -0.000488281L11.0811 2.30313C11.068 2.30391 10.9918 2.31087 10.9787 2.31164C8.99555 2.43536 7.15564 3.18391 5.67615 4.37864C5.65304 4.39719 5.62918 4.41654 5.60608 4.43509C5.56908 4.46602 5.53214 4.49619 5.49594 4.52788L5.49363 4.52944L5.49056 4.53177L5.48748 4.53485L5.48517 4.53637C5.47591 4.54491 5.46589 4.55264 5.45668 4.56037C4.61643 5.25479 3.92482 6.1023 3.41112 7.04572C2.37295 8.95416 2.06027 11.2617 2.71798 13.5135C3.37724 15.7668 4.88059 17.5376 6.77979 18.5793C7.7864 19.1307 8.90389 19.4786 10.066 19.5861C12.596 19.7949 14.9804 18.9775 16.8049 17.4758C16.8935 17.4031 16.9813 17.3281 17.0668 17.2523L18.001 19.5598C15.7359 21.3012 12.8417 22.2269 9.78571 21.9516Z" fill="#39B980"/>
</svg>
