<svg width="20" height="20" viewBox="0 0 20 20" fill="none" xmlns="http://www.w3.org/2000/svg">
<g clip-path="url(#clip0_9184_2129)">
<path d="M9.5835 17.5003H5.00016C4.55814 17.5003 4.13421 17.3247 3.82165 17.0122C3.50909 16.6996 3.3335 16.2757 3.3335 15.8337V5.83366C3.3335 5.39163 3.50909 4.96771 3.82165 4.65515C4.13421 4.34259 4.55814 4.16699 5.00016 4.16699H15.0002C15.4422 4.16699 15.8661 4.34259 16.1787 4.65515C16.4912 4.96771 16.6668 5.39163 16.6668 5.83366V10.8337" stroke="#E02424" stroke-width="1.5" stroke-linecap="round" stroke-linejoin="round"/>
<path d="M13.3335 2.5V5.83333" stroke="#E02424" stroke-width="1.5" stroke-linecap="round" stroke-linejoin="round"/>
<path d="M6.6665 2.5V5.83333" stroke="#E02424" stroke-width="1.5" stroke-linecap="round" stroke-linejoin="round"/>
<path d="M3.3335 9.16699H16.6668" stroke="#E02424" stroke-width="1.5" stroke-linecap="round" stroke-linejoin="round"/>
<path d="M12.5 15.8337L14.1667 17.5003L17.5 14.167" stroke="#E02424" stroke-width="1.5" stroke-linecap="round" stroke-linejoin="round"/>
</g>
<defs>
<clipPath id="clip0_9184_2129">
<rect width="20" height="20" fill="white"/>
</clipPath>
</defs>
</svg>
