<svg width="11" height="8" viewBox="0 0 11 8" fill="none" xmlns="http://www.w3.org/2000/svg">
<path d="M3.25011 6.4495L1.20845 4.40783C1.15506 4.35379 1.09148 4.31088 1.02138 4.2816C0.951288 4.25232 0.876079 4.23724 0.800115 4.23724C0.72415 4.23724 0.648941 4.25232 0.578847 4.2816C0.508753 4.31088 0.445169 4.35379 0.391781 4.40783C0.337741 4.46122 0.294836 4.5248 0.265553 4.59489C0.23627 4.66499 0.221191 4.7402 0.221191 4.81616C0.221191 4.89213 0.23627 4.96734 0.265553 5.03743C0.294836 5.10752 0.337741 5.17111 0.391781 5.2245L2.83595 7.66866C3.06345 7.89616 3.43095 7.89616 3.65845 7.66866L9.84178 1.49116C9.89582 1.43777 9.93873 1.37419 9.96801 1.3041C9.99729 1.234 10.0124 1.15879 10.0124 1.08283C10.0124 1.00686 9.99729 0.931656 9.96801 0.861562C9.93873 0.791468 9.89582 0.727884 9.84178 0.674496C9.78839 0.620456 9.72481 0.577551 9.65471 0.548268C9.58462 0.518985 9.50941 0.503906 9.43345 0.503906C9.35748 0.503906 9.28227 0.518985 9.21218 0.548268C9.14209 0.577551 9.0785 0.620456 9.02511 0.674496L3.25011 6.4495Z" fill="black"/>
</svg>
