<svg width="24" height="24" viewBox="0 0 24 24" fill="none" xmlns="http://www.w3.org/2000/svg">
<path d="M5.71983 5.71981C5.86045 5.57936 6.05108 5.50047 6.24983 5.50047C6.44858 5.50047 6.6392 5.57936 6.77983 5.71981L11.9998 10.9398L17.2198 5.71981C17.3115 5.62109 17.4281 5.54892 17.5574 5.5109C17.6866 5.47289 17.8237 5.47044 17.9542 5.50381C18.0848 5.53719 18.2039 5.60515 18.299 5.70053C18.3941 5.79592 18.4618 5.9152 18.4948 6.04581C18.5281 6.1762 18.5258 6.31314 18.4879 6.44228C18.4501 6.57142 18.3782 6.68801 18.2798 6.77981L13.0598 11.9998L18.2798 17.2198C18.3786 17.3115 18.4507 17.4281 18.4887 17.5573C18.5268 17.6866 18.5292 17.8237 18.4958 17.9542C18.4625 18.0847 18.3945 18.2038 18.2991 18.299C18.2037 18.3941 18.0844 18.4618 17.9538 18.4948C17.8234 18.5281 17.6865 18.5257 17.5574 18.4879C17.4282 18.4501 17.3116 18.3782 17.2198 18.2798L11.9998 13.0598L6.77983 18.2798C6.63768 18.4125 6.44958 18.4847 6.25519 18.4814C6.0608 18.478 5.87531 18.3993 5.73783 18.2618C5.60036 18.1243 5.52164 17.9388 5.51828 17.7445C5.51493 17.5501 5.58719 17.362 5.71983 17.2198L10.9398 11.9998L5.71983 6.77981C5.57938 6.63919 5.50049 6.44856 5.50049 6.24981C5.50049 6.05106 5.57938 5.86044 5.71983 5.71981Z" fill="black"/>
</svg>
