<svg width="20" height="20" viewBox="0 0 20 20" fill="none" xmlns="http://www.w3.org/2000/svg">
<path fill-rule="evenodd" clip-rule="evenodd" d="M17.0833 5.83332H2.91667C2.68655 5.83332 2.5 5.64677 2.5 5.41666V4.58332C2.5 4.35321 2.68655 4.16666 2.91667 4.16666H17.0833C17.3134 4.16666 17.5 4.35321 17.5 4.58332V5.41666C17.5 5.64677 17.3134 5.83332 17.0833 5.83332ZM15 10.4167V9.58332C15 9.35324 14.8134 9.16666 14.5833 9.16666H5.41667C5.18655 9.16666 5 9.35324 5 9.58332V10.4167C5 10.6467 5.18655 10.8333 5.41667 10.8333H14.5833C14.8134 10.8333 15 10.6467 15 10.4167ZM12.5 14.5833V15.4167C12.5 15.6467 12.3134 15.8333 12.0833 15.8333H7.91667C7.68655 15.8333 7.5 15.6467 7.5 15.4167V14.5833C7.5 14.3532 7.68655 14.1667 7.91667 14.1667H12.0833C12.3134 14.1667 12.5 14.3532 12.5 14.5833Z" fill="#5E5F62"/>
</svg>
