<svg width="172" height="172" viewBox="0 0 172 172" fill="none" xmlns="http://www.w3.org/2000/svg">
<path d="M49.0046 21.8976C60.2449 15.3947 73.005 11.9801 85.9908 12.0001L86 12.0001C126.87 12.0001 160 45.1298 160 86.0001C160 126.87 126.87 160 86 160C45.1297 160 12 126.87 12 86.0001C12 72.5141 15.6041 59.8758 21.8966 49.0062C23.5569 46.1384 22.5779 42.4677 19.7101 40.8075C16.8423 39.1472 13.1716 40.1262 11.5114 42.994C4.1879 55.6444 0 70.35 0 86.0001C0 133.498 38.5023 172 86 172C133.498 172 172 133.498 172 86.0001C172 38.5039 133.5 0.00258183 86.0046 9.46429e-05C70.9041 -0.0223529 56.0661 3.9487 42.9954 11.5106C40.1271 13.17 39.1471 16.8404 40.8065 19.7087C42.4659 22.577 46.1363 23.557 49.0046 21.8976Z" fill="#53B887"/>
<path d="M118.243 70.2426C120.586 67.8995 120.586 64.1005 118.243 61.7574C115.899 59.4142 112.101 59.4142 109.757 61.7574L74 97.5147L62.2426 85.7574C59.8995 83.4142 56.1005 83.4142 53.7574 85.7574C51.4142 88.1005 51.4142 91.8995 53.7574 94.2426L69.7574 110.243C72.1005 112.586 75.8995 112.586 78.2426 110.243L118.243 70.2426Z" fill="#53B887"/>
</svg>
