<svg width="664" height="303" viewBox="0 0 664 303" fill="none" xmlns="http://www.w3.org/2000/svg">
<path d="M109.046 157.936C146.947 157.936 165.917 178.11 165.917 218.458V242.321C165.917 282.669 146.947 302.843 109.046 302.843H58.121C20.2192 302.843 1.24955 282.669 1.24955 242.321V230.766C1.24955 229.298 2.41634 228.131 3.88423 228.131H55.4486C56.9165 228.131 58.0833 229.298 58.0833 230.766V248.305C58.0833 250.752 58.8361 252.897 60.3792 254.741C62.2235 256.586 64.3689 257.489 66.8154 257.489H104.416C106.862 257.489 108.857 256.586 110.363 254.741C112.207 252.897 113.11 250.752 113.11 248.305V220.792C113.11 218.345 112.207 216.2 110.363 214.355C108.82 212.511 106.862 211.608 104.416 211.608H57.18C19.2783 211.608 0.308594 191.434 0.308594 151.086V130.46C0.308594 90.1116 19.2783 69.9375 57.18 69.9375H105.319C143.221 69.9375 162.191 90.1116 162.191 130.46V136.068C162.191 137.536 161.024 138.703 159.556 138.703H107.992C106.524 138.703 105.357 137.536 105.357 136.068V124.513C105.357 122.066 104.454 119.921 102.609 118.077C101.066 116.233 99.109 115.329 96.6625 115.329H61.8095C59.363 115.329 57.2176 116.233 55.3734 118.077C53.8302 119.921 53.0774 122.066 53.0774 124.513V148.827C53.0774 151.274 53.8302 153.419 55.3734 155.263C57.2176 157.108 59.363 158.011 61.8095 158.011H109.046V157.936Z" fill="#59479E"/>
<path d="M475.206 69.894H484.841C522.743 69.894 541.713 90.0681 541.713 130.416V242.315C541.713 282.663 522.743 302.837 484.841 302.837H475.206C456.387 302.837 442.122 297.681 432.487 287.406C430.868 285.674 427.97 286.954 427.97 289.287V295.611C427.97 297.079 426.803 298.245 425.335 298.245H378.814C377.346 298.245 376.18 297.079 376.18 295.611V4.17765C376.18 2.70975 377.346 1.54297 378.814 1.54297H434.971C436.439 1.54297 437.605 2.70975 437.605 4.17765V75.9162C437.605 77.9486 439.826 79.2283 441.557 78.1745C450.703 72.6416 461.92 69.8564 475.206 69.8564V69.894ZM437.605 123.115V249.692C437.605 252.138 438.358 254.284 439.901 256.128C441.746 257.972 443.891 258.876 446.337 258.876H471.555C474.002 258.876 475.996 257.972 477.502 256.128C479.346 254.284 480.249 252.138 480.249 249.692V123.115C480.249 120.668 479.346 118.523 477.502 116.678C475.959 114.834 474.002 113.931 471.555 113.931H446.337C443.891 113.931 441.746 114.834 439.901 116.678C438.358 118.523 437.605 120.668 437.605 123.115Z" fill="#59479E"/>
<path d="M625.457 121.607V240.958C625.457 249.502 627.151 255.298 630.5 258.385C633.888 261.433 638.931 262.939 645.669 262.939H661.364C662.832 262.939 663.999 264.143 663.999 265.611V300.201C663.999 301.669 662.832 302.873 661.364 302.873H620.903C582.963 302.873 564.031 282.661 564.031 242.313V28.4901C564.031 27.0223 565.198 25.8555 566.666 25.8555H594.443C595.196 41.8141 608.369 54.4982 624.516 54.4982C624.817 54.4982 625.156 54.4982 625.457 54.4605V71.8118C625.457 73.2797 626.624 74.4465 628.092 74.4465H661.364C662.832 74.4465 663.999 75.6509 663.999 77.1188V116.3C663.999 117.768 662.832 118.935 661.364 118.935H628.092C626.624 118.935 625.457 120.139 625.457 121.607Z" fill="#59479E"/>
<path d="M351.148 74.4825H304.627C303.16 74.4825 301.993 75.6869 301.993 77.1172V83.478C301.993 85.8116 299.095 87.0537 297.476 85.3599C287.803 75.0471 273.576 69.8906 254.757 69.8906H245.121C207.182 69.8906 188.25 90.0647 188.25 130.451V242.349C188.25 282.697 207.182 302.871 245.121 302.871H254.757C273.576 302.871 287.803 297.753 297.476 287.44C299.095 285.746 301.993 286.988 301.993 289.322V295.645C301.993 297.113 303.16 298.317 304.627 298.317H351.148C352.616 298.317 353.821 297.113 353.821 295.645V77.1172C353.821 75.6869 352.616 74.4825 351.148 74.4825ZM310.988 205.087L290.174 203.469C287.013 203.205 284.604 206.367 285.733 209.34L300.563 248.861C301.391 251.119 300.261 253.641 297.966 254.469L283.625 259.851C281.367 260.717 278.845 259.55 277.98 257.291L263.188 217.809C262.059 214.798 258.22 214.007 255.961 216.266L241.358 231.171C238.61 233.993 233.83 232.036 233.868 228.122V116.976C233.868 112.949 238.911 111.067 241.546 114.116L314.639 197.823C317.199 200.796 314.903 205.388 310.988 205.087Z" fill="#59479E"/>
<path d="M647.916 24.3876C647.916 37.034 637.942 47.2716 625.446 47.7609C625.145 47.7986 624.806 47.7985 624.505 47.7985C612.046 47.7985 601.884 38.1255 601.169 25.8554C601.094 25.3662 601.094 24.8769 601.094 24.3876C601.094 11.44 611.557 0.976562 624.505 0.976562C637.452 0.976562 647.916 11.44 647.916 24.3876Z" fill="#F60B2B"/>
</svg>
