<svg width="20" height="20" viewBox="0 0 20 20" fill="none" xmlns="http://www.w3.org/2000/svg">
<path fill-rule="evenodd" clip-rule="evenodd" d="M4.77769 1.70258C5.79185 0.694251 7.46185 0.873418 8.31102 2.00842L9.36269 3.41175C10.0544 4.33508 9.99269 5.62508 9.17185 6.44092L8.97352 6.63925C8.95112 6.72252 8.94884 6.80992 8.96685 6.89425C9.01935 7.23425 9.30352 7.95425 10.4935 9.13758C11.6835 10.3209 12.4085 10.6043 12.7535 10.6576C12.8404 10.6761 12.9304 10.6735 13.016 10.6501L13.356 10.3118C14.086 9.58675 15.206 9.45092 16.1094 9.94175L17.701 10.8084C19.0652 11.5484 19.4094 13.4018 18.2927 14.5126L17.1085 15.6893C16.7352 16.0601 16.2335 16.3693 15.6219 16.4268C14.1135 16.5676 10.5994 16.3876 6.90519 12.7151C3.45769 9.28675 2.79602 6.29675 2.71185 4.82342C2.67019 4.07842 3.02185 3.44842 3.47019 3.00342L4.77769 1.70258ZM7.31102 2.75758C6.88852 2.19342 6.10185 2.14842 5.65852 2.58925L4.35019 3.88925C4.07519 4.16258 3.94352 4.46425 3.96019 4.75258C4.02685 5.92342 4.56019 8.62092 7.78685 11.8293C11.1719 15.1943 14.2977 15.2951 15.506 15.1818C15.7527 15.1593 15.9977 15.0309 16.2269 14.8034L17.4102 13.6259C17.8919 13.1476 17.786 12.2759 17.1044 11.9059L15.5127 11.0401C15.0727 10.8018 14.5577 10.8801 14.2377 11.1984L13.8585 11.5759L13.4169 11.1326C13.8585 11.5759 13.8577 11.5768 13.8569 11.5768L13.856 11.5784L13.8535 11.5809L13.8477 11.5859L13.8352 11.5976C13.7998 11.6299 13.7619 11.6595 13.7219 11.6859C13.6552 11.7301 13.5669 11.7793 13.456 11.8201C13.231 11.9043 12.9327 11.9493 12.5644 11.8926C11.8419 11.7818 10.8844 11.2893 9.61185 10.0243C8.34019 8.75925 7.84352 7.80758 7.73185 7.08592C7.67435 6.71759 7.72019 6.41925 7.80519 6.19425C7.85232 6.06781 7.91927 5.94966 8.00352 5.84425L8.03019 5.81508L8.04185 5.80258L8.04685 5.79758L8.04935 5.79508L8.05102 5.79342L8.29102 5.55508C8.64769 5.19925 8.69769 4.61008 8.36185 4.16092L7.31102 2.75758Z" fill="#E02424"/>
</svg>
