<svg width="18" height="18" viewBox="0 0 18 18" fill="none" xmlns="http://www.w3.org/2000/svg">
<path d="M1.91943 1.91943C2.16055 1.67832 2.48758 1.54286 2.82857 1.54286H4.88571C5.31176 1.54286 5.65714 1.19748 5.65714 0.771429C5.65714 0.34538 5.31176 0 4.88571 0H2.82857C2.07839 0 1.35893 0.298009 0.828469 0.828469C0.298009 1.35893 0 2.07839 0 2.82857V4.88571C0 5.31176 0.34538 5.65714 0.771429 5.65714C1.19748 5.65714 1.54286 5.31176 1.54286 4.88571V2.82857C1.54286 2.48758 1.67832 2.16055 1.91943 1.91943Z" fill="black"/>
<path d="M1.54286 13.1143C1.54286 12.6882 1.19748 12.3429 0.771429 12.3429C0.34538 12.3429 0 12.6882 0 13.1143V15.1714C0 15.9216 0.298009 16.6411 0.828469 17.1715C1.35893 17.702 2.07839 18 2.82857 18H4.88571C5.31176 18 5.65714 17.6546 5.65714 17.2286C5.65714 16.8025 5.31176 16.4571 4.88571 16.4571H2.82857C2.48758 16.4571 2.16055 16.3217 1.91943 16.0806C1.67832 15.8394 1.54286 15.5124 1.54286 15.1714V13.1143Z" fill="black"/>
<path d="M12.3429 0.771429C12.3429 0.34538 12.6882 0 13.1143 0H15.1714C15.9216 0 16.6411 0.298009 17.1715 0.828469C17.702 1.35893 18 2.07839 18 2.82857V4.88571C18 5.31176 17.6546 5.65714 17.2286 5.65714C16.8025 5.65714 16.4571 5.31176 16.4571 4.88571V2.82857C16.4571 2.48758 16.3217 2.16055 16.0806 1.91943C15.8394 1.67832 15.5124 1.54286 15.1714 1.54286H13.1143C12.6882 1.54286 12.3429 1.19748 12.3429 0.771429Z" fill="black"/>
<path d="M18 13.1143C18 12.6882 17.6546 12.3429 17.2286 12.3429C16.8025 12.3429 16.4571 12.6882 16.4571 13.1143V15.1714C16.4571 15.5124 16.3217 15.8394 16.0806 16.0806C15.8394 16.3217 15.5124 16.4571 15.1714 16.4571H13.1143C12.6882 16.4571 12.3429 16.8025 12.3429 17.2286C12.3429 17.6546 12.6882 18 13.1143 18H15.1714C15.9216 18 16.6411 17.702 17.1715 17.1715C17.702 16.6411 18 15.9216 18 15.1714V13.1143Z" fill="black"/>
</svg>
