<svg width="24" height="24" viewBox="0 0 24 24" fill="none" xmlns="http://www.w3.org/2000/svg">
<g clip-path="url(#clip0_9218_2173)">
<path d="M17 3.34038C18.5083 4.21124 19.7629 5.46091 20.6398 6.96568C21.5167 8.47046 21.9854 10.1782 21.9994 11.9197C22.0135 13.6613 21.5725 15.3763 20.72 16.8951C19.8676 18.4138 18.6332 19.6836 17.1392 20.5787C15.6452 21.4738 13.9434 21.9632 12.2021 21.9984C10.4608 22.0337 8.74055 21.6136 7.21155 20.7796C5.68256 19.9457 4.39787 18.7269 3.48467 17.2439C2.57146 15.7609 2.06141 14.0651 2.005 12.3244L2 12.0004L2.005 11.6764C2.061 9.94937 2.56355 8.26634 3.46364 6.79137C4.36373 5.31641 5.63065 4.09983 7.14089 3.26026C8.65113 2.42069 10.3531 1.98678 12.081 2.00082C13.8089 2.01486 15.5036 2.47638 17 3.34038ZM12 6.00038C11.7551 6.00041 11.5187 6.09034 11.3356 6.2531C11.1526 6.41586 11.0357 6.64013 11.007 6.88338L11 7.00038V12.0004L11.009 12.1314C11.0318 12.3049 11.0997 12.4694 11.206 12.6084L11.293 12.7084L14.293 15.7084L14.387 15.7904C14.5624 15.9264 14.778 16.0003 15 16.0003C15.222 16.0003 15.4376 15.9264 15.613 15.7904L15.707 15.7074L15.79 15.6134C15.9261 15.438 15.9999 15.2223 15.9999 15.0004C15.9999 14.7784 15.9261 14.5628 15.79 14.3874L15.707 14.2934L13 11.5854V7.00038L12.993 6.88338C12.9643 6.64013 12.8474 6.41586 12.6644 6.2531C12.4813 6.09034 12.2449 6.00041 12 6.00038Z" fill="#5E5F62"/>
</g>
<defs>
<clipPath id="clip0_9218_2173">
<rect width="24" height="24" fill="white" transform="translate(0 0.000488281)"/>
</clipPath>
</defs>
</svg>
